<?xml version="1.0" encoding="UTF-8" standalone="no"?>
<svg
   xmlns:dc="http://purl.org/dc/elements/1.1/"
   xmlns:cc="http://creativecommons.org/ns#"
   xmlns:rdf="http://www.w3.org/1999/02/22-rdf-syntax-ns#"
   xmlns:svg="http://www.w3.org/2000/svg"
   xmlns="http://www.w3.org/2000/svg"
   xmlns:sodipodi="http://sodipodi.sourceforge.net/DTD/sodipodi-0.dtd"
   xmlns:inkscape="http://www.inkscape.org/namespaces/inkscape"
   height="100px"
   width="100px"
   viewBox="0 0 64 64"
   fill="none"
   x="0px"
   y="0px"
   version="1.1"
   id="svg840"
   sodipodi:docname="help.svg"
   inkscape:version="0.92.3 (2405546, 2018-03-11)">
  <metadata
     id="metadata846">
    <rdf:RDF>
      <cc:Work
         rdf:about="">
        <dc:format>image/svg+xml</dc:format>
        <dc:type
           rdf:resource="http://purl.org/dc/dcmitype/StillImage" />
      </cc:Work>
    </rdf:RDF>
  </metadata>
  <defs
     id="defs844" />
  <sodipodi:namedview
     pagecolor="#ffffff"
     bordercolor="#666666"
     borderopacity="1"
     objecttolerance="10"
     gridtolerance="10"
     guidetolerance="10"
     inkscape:pageopacity="0"
     inkscape:pageshadow="2"
     inkscape:window-width="1698"
     inkscape:window-height="1368"
     id="namedview842"
     showgrid="false"
     inkscape:zoom="2.36"
     inkscape:cx="50"
     inkscape:cy="50"
     inkscape:window-x="843"
     inkscape:window-y="0"
     inkscape:window-maximized="0"
     inkscape:current-layer="svg840" />
  <path
     fill-rule="evenodd"
     clip-rule="evenodd"
     d="M6 24C6 14.0589 14.0589 6 24 6H32H40C49.9411 6 58 14.0589 58 24V32V40C58 49.9411 49.9411 58 40 58H32H24C14.0589 58 6 49.9411 6 40V32V24ZM24 10C16.268 10 10 16.268 10 24V32V40C10 47.732 16.268 54 24 54H32H40C47.732 54 54 47.732 54 40V32V24C54 16.268 47.732 10 40 10H32H24ZM32 22C30.2847 22 29 23.3329 29 24.8485C29 25.9531 28.1046 26.8485 27 26.8485C25.8954 26.8485 25 25.9531 25 24.8485C25 21.0086 28.1925 18 32 18C35.8075 18 39 21.0086 39 24.8485C39 26.7116 38.2378 28.3949 37.022 29.6196C36.7921 29.8512 36.5719 30.0675 36.3609 30.2746L36.3609 30.2747C35.7638 30.8611 35.2419 31.3737 34.7908 31.9482C34.2088 32.6896 34 33.2366 34 33.697V36C34 37.1046 33.1046 38 32 38C30.8954 38 30 37.1046 30 36V33.697C30 31.9482 30.8143 30.5359 31.6445 29.4783C32.2716 28.6795 33.0572 27.9094 33.6931 27.286L33.6931 27.286C33.8703 27.1123 34.0359 26.9499 34.1832 26.8016C34.6981 26.2829 35 25.5963 35 24.8485C35 23.3329 33.7153 22 32 22ZM32 44C33.1046 44 34 43.1046 34 42C34 40.8954 33.1046 40 32 40C30.8954 40 30 40.8954 30 42C30 43.1046 30.8954 44 32 44Z"
     fill="black"
     id="path838"
     style="fill:#0080ff;fill-opacity:1" />
</svg>
