<svg height='100px' width='100px'  fill="#0080ff" xmlns="http://www.w3.org/2000/svg" viewBox="0 0 32 32" x="0px" y="0px"><defs><style>.cls-1{fill-rule:evenodd;}</style></defs><title>home, house, address, building</title><g><path class="cls-1" d="M17.345,3.079a2.23,2.23,0,0,0-1.3-.449h-.08a2.235,2.235,0,0,0-1.309.449L2.831,11.946a2.076,2.076,0,0,0,1.246,3.737h.905V25.2a4.175,4.175,0,0,0,4.176,4.174H22.842A4.175,4.175,0,0,0,27.018,25.2V15.684h.905a2.076,2.076,0,0,0,1.246-3.737Zm1.323,24.784H13.332v-7.8a.959.959,0,0,1,.957-.958h3.423a.959.959,0,0,1,.957.958Zm9.8-14.075a.569.569,0,0,1-.541.389H26.265a.752.752,0,0,0-.753.753V25.2a2.668,2.668,0,0,1-2.669,2.668H20.174v-7.8A2.466,2.466,0,0,0,17.711,17.6H14.289a2.466,2.466,0,0,0-2.463,2.465v7.8H9.158A2.668,2.668,0,0,1,6.489,25.2V14.93a.753.753,0,0,0-.753-.753H4.077a.57.57,0,0,1-.342-1.026L15.559,4.285A.737.737,0,0,1,16,4.137h.03a.727.727,0,0,1,.411.148l11.824,8.867A.571.571,0,0,1,28.464,13.789Z"></path></g></svg>