<svg height='100px' width='100px'  fill="#0080FF" xmlns="http://www.w3.org/2000/svg" xmlns:xlink="http://www.w3.org/1999/xlink" version="1.1" x="0px" y="0px" viewBox="0 0 100 100" enable-background="new 0 0 100 100" xml:space="preserve"><path d="M94.821,47.89c-2.688,0.901-5.354,0.92-6.272,0.895v-1.153h-1.643v-0.763H84.23c-0.647-7.154-3.481-13.675-7.835-18.887  l1.891-1.89l-0.54-0.539l1.162-1.161l-0.816-0.816c0.632-0.667,2.53-2.537,5.07-3.801c2.75-1.371,3.593-3.73,2.181-5.142  c-1.412-1.412-3.771-0.569-5.142,2.181c-1.265,2.539-3.136,4.438-3.803,5.07l-0.815-0.816l-1.161,1.162l-0.54-0.54l-1.89,1.891  c-5.217-4.347-11.741-7.173-18.897-7.813v-2.673h-0.761v-1.643H51.18c-0.025-0.918-0.006-3.584,0.896-6.272  c0.976-2.914-0.098-5.178-2.094-5.178c-1.997,0-3.07,2.264-2.093,5.178c0.901,2.688,0.92,5.354,0.895,6.272h-1.154v1.643h-0.762  v2.677c-7.154,0.646-13.675,3.48-18.887,7.833l-1.89-1.89l-0.539,0.54l-1.161-1.161l-0.815,0.815  c-0.667-0.632-2.538-2.531-3.802-5.07c-1.371-2.75-3.73-3.594-5.142-2.181c-1.412,1.412-0.568,3.771,2.182,5.142  c2.538,1.264,4.437,3.134,5.069,3.802l-0.815,0.815l1.16,1.161l-0.538,0.539l1.892,1.892c-4.348,5.216-7.173,11.74-7.813,18.896  h-2.676v0.762h-1.641v1.154c-0.917,0.024-3.584,0.004-6.273-0.896C2.265,46.948,0,48.02,0,50.017c0,1.998,2.265,3.07,5.179,2.094  c2.689-0.9,5.356-0.921,6.273-0.896v1.154h1.641v0.761h2.678c0.647,7.155,3.48,13.676,7.833,18.889l-1.889,1.891l0.537,0.537  l-1.161,1.162l0.815,0.815c-0.631,0.667-2.528,2.539-5.069,3.803c-2.75,1.37-3.592,3.73-2.181,5.141  c1.411,1.413,3.771,0.569,5.142-2.182c1.264-2.538,3.135-4.438,3.802-5.068l0.815,0.815l1.161-1.16l0.539,0.538l1.892-1.892  c5.216,4.348,11.74,7.174,18.896,7.813v2.675h0.761v1.643h1.154c0.026,0.918,0.006,3.583-0.897,6.272  c-0.974,2.914,0.099,5.179,2.095,5.179c1.997,0,3.069-2.265,2.094-5.179c-0.901-2.689-0.922-5.354-0.896-6.272h1.152v-1.643h0.762  v-2.677c7.154-0.646,13.675-3.479,18.889-7.833l1.89,1.89l0.538-0.539l1.161,1.161l0.815-0.815c0.668,0.631,2.539,2.529,3.803,5.068  c1.37,2.751,3.73,3.594,5.143,2.183c1.411-1.413,0.567-3.772-2.183-5.144c-2.539-1.263-4.437-3.134-5.069-3.801l0.815-0.816  l-1.159-1.16l0.537-0.54l-1.89-1.891c4.347-5.217,7.173-11.74,7.812-18.896h2.675v-0.762h1.643V51.18  c0.918-0.024,3.585-0.006,6.272,0.896c2.913,0.975,5.179-0.098,5.179-2.094C100,47.986,97.734,46.912,94.821,47.89z M19.207,50.849  c-0.466,0-0.846-0.377-0.846-0.846s0.38-0.848,0.846-0.848c0.468,0,0.848,0.379,0.848,0.848S19.675,50.849,19.207,50.849z   M71.175,27.629c0.33-0.33,0.867-0.33,1.197,0c0.331,0.332,0.331,0.868,0,1.199c-0.33,0.33-0.867,0.33-1.197,0  C70.843,28.497,70.845,27.96,71.175,27.629z M68.669,34.143l0.459,0.459l1.41-1.408c3.224,3.933,5.335,8.791,5.868,14.133h-1.992  v0.649H72.29v0.985c-0.722,0.021-2.802,0.002-4.902-0.765c-1.778-0.649-3.233-0.229-3.793,0.793v-1.013h-2.136  c-0.302-1.721-0.978-3.308-1.944-4.679l1.505-1.504l-0.718-0.716c1.118,0.326,2.445-0.406,3.243-2.121  c0.952-2.05,2.418-3.528,2.928-4.007l0.694,0.696L68.669,34.143z M59.683,50c0,0.467-0.378,0.847-0.847,0.847  c-0.468,0-0.848-0.38-0.848-0.847c0-0.469,0.38-0.847,0.848-0.847C59.305,49.153,59.683,49.531,59.683,50z M51.769,32.613  c-0.768-2.101-0.785-4.18-0.765-4.903h0.984v-2.123h0.649v-1.995c5.344,0.525,10.204,2.63,14.142,5.849l-1.407,1.407l0.46,0.459  l-1.502,1.502l0.696,0.694c-0.479,0.511-1.957,1.975-4.007,2.927c-1.715,0.798-2.446,2.125-2.121,3.243l-0.716-0.716l-1.508,1.508  c-1.375-0.965-2.966-1.632-4.687-1.929v-2.129h-1.013C51.996,35.845,52.418,34.389,51.769,32.613z M43.154,55.647  c0.331-0.329,0.866-0.329,1.198,0c0.331,0.331,0.331,0.869,0,1.199c-0.332,0.331-0.867,0.33-1.198,0  C42.822,56.517,42.822,55.979,43.154,55.647z M43.154,43.152c0.331-0.33,0.866-0.33,1.198,0.001c0.331,0.33,0.331,0.866,0,1.198  c-0.331,0.331-0.867,0.331-1.198,0C42.822,44.02,42.822,43.484,43.154,43.152z M43.769,50c0-3.441,2.79-6.232,6.231-6.232  s6.232,2.791,6.232,6.232S53.441,56.23,50,56.23S43.769,53.441,43.769,50z M55.649,55.648c0.332-0.33,0.867-0.33,1.198,0  c0.33,0.33,0.33,0.868,0,1.198c-0.331,0.33-0.867,0.331-1.198,0C55.318,56.517,55.318,55.979,55.649,55.648z M56.848,44.352  c-0.331,0.331-0.867,0.33-1.198,0c-0.331-0.332-0.331-0.868,0-1.199c0.332-0.33,0.867-0.33,1.198,0  C57.178,43.484,57.178,44.02,56.848,44.352z M50,18.363c0.467,0,0.847,0.378,0.847,0.847c0,0.467-0.38,0.847-0.847,0.847  s-0.847-0.38-0.847-0.847C49.153,18.741,49.533,18.363,50,18.363z M50,40.317c0.467,0,0.847,0.38,0.847,0.847  c0,0.468-0.38,0.848-0.847,0.848s-0.847-0.38-0.847-0.848C49.153,40.697,49.533,40.317,50,40.317z M47.327,23.593v1.993h0.649v2.123  h0.985c0.021,0.723,0.002,2.803-0.765,4.903c-0.649,1.776-0.227,3.232,0.793,3.793h-1.013v2.135  c-1.719,0.302-3.308,0.977-4.678,1.946l-1.505-1.505l-0.716,0.716c0.326-1.118-0.406-2.445-2.121-3.243  c-2.05-0.952-3.528-2.417-4.006-2.927l0.695-0.696l-1.502-1.5l0.46-0.46l-1.409-1.411C37.126,26.237,41.986,24.126,47.327,23.593z   M42.012,50c0,0.467-0.38,0.847-0.848,0.847c-0.467,0-0.847-0.38-0.847-0.847c0-0.469,0.38-0.847,0.847-0.847  C41.632,49.153,42.012,49.531,42.012,50z M27.628,27.629c0.33-0.33,0.867-0.33,1.198,0c0.331,0.332,0.331,0.868,0,1.198  c-0.331,0.332-0.868,0.332-1.198,0C27.296,28.497,27.296,27.96,27.628,27.629z M29.44,33.221l1.407,1.407l0.459-0.459l1.502,1.5  l0.694-0.695c0.511,0.479,1.975,1.958,2.927,4.007c0.798,1.715,2.125,2.446,3.243,2.121l-0.716,0.716l1.508,1.509  c-0.962,1.374-1.631,2.964-1.928,4.685h-2.13v1.012c-0.56-1.02-2.016-1.441-3.793-0.792c-2.1,0.768-4.181,0.787-4.903,0.766v-0.985  h-2.122v-0.651h-1.996C24.118,42.019,26.223,37.158,29.44,33.221z M28.826,72.374c-0.332,0.332-0.868,0.332-1.198,0  c-0.332-0.331-0.332-0.866,0-1.197c0.33-0.331,0.866-0.331,1.196,0C29.156,71.508,29.156,72.043,28.826,72.374z M31.331,65.856  l-0.459-0.46l-1.411,1.41c-3.223-3.935-5.334-8.792-5.866-14.133h1.993v-0.65h2.122v-0.984c0.722-0.021,2.804-0.004,4.903,0.765  c1.777,0.648,3.233,0.228,3.793-0.794v1.014h2.136c0.302,1.719,0.977,3.307,1.943,4.679l-1.504,1.504l0.717,0.716  c-1.118-0.325-2.445,0.406-3.244,2.122c-0.952,2.048-2.416,3.526-2.927,4.006l-0.695-0.694L31.331,65.856z M48.231,67.388  c0.768,2.1,0.786,4.18,0.764,4.901h-0.983v2.123h-0.651v1.996c-5.342-0.526-10.203-2.63-14.14-5.85l1.407-1.405l-0.46-0.459  l1.502-1.502l-0.695-0.695c0.479-0.511,1.958-1.976,4.006-2.928c1.716-0.798,2.446-2.125,2.121-3.243l0.717,0.717l1.508-1.508  c1.374,0.963,2.964,1.632,4.685,1.928v2.13h1.013C48.003,64.154,47.582,65.609,48.231,67.388z M50,81.643  c-0.467,0-0.847-0.38-0.847-0.849c0-0.467,0.38-0.846,0.847-0.846s0.847,0.379,0.847,0.846C50.847,81.263,50.467,81.643,50,81.643z   M50,59.683c-0.467,0-0.847-0.381-0.847-0.847c0-0.469,0.38-0.848,0.847-0.848s0.847,0.379,0.847,0.848  C50.847,59.302,50.467,59.683,50,59.683z M52.674,76.405v-1.993h-0.65v-2.123h-0.984c-0.021-0.722-0.004-2.802,0.764-4.901  c0.65-1.778,0.229-3.233-0.792-3.795h1.013v-2.135c1.72-0.302,3.308-0.977,4.68-1.943l1.503,1.503l0.717-0.716  c-0.325,1.118,0.406,2.445,2.121,3.243c2.05,0.951,3.526,2.415,4.006,2.927l-0.694,0.695l1.502,1.501l-0.461,0.46l1.411,1.41  C62.874,73.762,58.016,75.873,52.674,76.405z M72.372,72.374c-0.33,0.332-0.866,0.332-1.197,0c-0.33-0.331-0.33-0.866,0-1.197  c0.331-0.331,0.867-0.331,1.197,0C72.705,71.508,72.703,72.043,72.372,72.374z M70.561,66.778l-1.407-1.406l-0.459,0.459  l-1.502-1.502l-0.695,0.696c-0.511-0.48-1.975-1.958-2.928-4.006c-0.798-1.717-2.124-2.446-3.242-2.121l0.716-0.717l-1.507-1.507  c0.964-1.375,1.632-2.966,1.93-4.687h2.129v-1.014c0.56,1.021,2.015,1.443,3.793,0.794c2.101-0.769,4.181-0.786,4.902-0.765v0.984  h2.124v0.65h1.995C75.884,57.981,73.778,62.841,70.561,66.778z M80.792,50.849c-0.467,0-0.847-0.377-0.847-0.846  s0.38-0.848,0.847-0.848c0.468,0,0.848,0.379,0.848,0.848S81.26,50.849,80.792,50.849z"></path></svg>