<?xml version="1.0" encoding="UTF-8" standalone="no"?>
<!-- Created with Inkscape (http://www.inkscape.org/) -->

<svg
   xmlns:dc="http://purl.org/dc/elements/1.1/"
   xmlns:cc="http://creativecommons.org/ns#"
   xmlns:rdf="http://www.w3.org/1999/02/22-rdf-syntax-ns#"
   xmlns:svg="http://www.w3.org/2000/svg"
   xmlns="http://www.w3.org/2000/svg"
   xmlns:sodipodi="http://sodipodi.sourceforge.net/DTD/sodipodi-0.dtd"
   xmlns:inkscape="http://www.inkscape.org/namespaces/inkscape"
   width="26.458069mm"
   height="26.458069mm"
   viewBox="0 0 26.458069 26.458069"
   version="1.1"
   id="svg8"
   inkscape:version="0.92.3 (2405546, 2018-03-11)"
   sodipodi:docname="ship-wheel-brown.svg">
  <defs
     id="defs2" />
  <sodipodi:namedview
     id="base"
     pagecolor="#ffffff"
     bordercolor="#666666"
     borderopacity="1.0"
     inkscape:pageopacity="0.0"
     inkscape:pageshadow="2"
     inkscape:zoom="5.6"
     inkscape:cx="31.501573"
     inkscape:cy="47.712994"
     inkscape:document-units="mm"
     inkscape:current-layer="layer1"
     showgrid="false"
     inkscape:window-width="1441"
     inkscape:window-height="1368"
     inkscape:window-x="999"
     inkscape:window-y="0"
     inkscape:window-maximized="0"
     fit-margin-top="0"
     fit-margin-left="0"
     fit-margin-right="0"
     fit-margin-bottom="0" />
  <metadata
     id="metadata5">
    <rdf:RDF>
      <cc:Work
         rdf:about="">
        <dc:format>image/svg+xml</dc:format>
        <dc:type
           rdf:resource="http://purl.org/dc/dcmitype/StillImage" />
        <dc:title></dc:title>
      </cc:Work>
    </rdf:RDF>
  </metadata>
  <g
     inkscape:label="Layer 1"
     inkscape:groupmode="layer"
     id="layer1"
     transform="translate(-69.925728,-103.8543)">
    <g
       style="fill:#d45500"
       id="g826"
       transform="matrix(0.26458333,0,0,0.26458333,69.925728,103.85377)">
      <path
         id="path815"
         d="m 94.821,47.89 c -2.688,0.901 -5.354,0.92 -6.272,0.895 V 47.632 H 86.906 V 46.869 H 84.23 C 83.583,39.715 80.749,33.194 76.395,27.982 l 1.891,-1.89 -0.54,-0.539 1.162,-1.161 -0.816,-0.816 c 0.632,-0.667 2.53,-2.537 5.07,-3.801 2.75,-1.371 3.593,-3.73 2.181,-5.142 -1.412,-1.412 -3.771,-0.569 -5.142,2.181 -1.265,2.539 -3.136,4.438 -3.803,5.07 l -0.815,-0.816 -1.161,1.162 -0.54,-0.54 -1.89,1.891 C 66.775,19.234 60.251,16.408 53.095,15.768 V 13.095 H 52.334 V 11.452 H 51.18 C 51.155,10.534 51.174,7.868 52.076,5.18 53.052,2.266 51.978,0.002 49.982,0.002 c -1.997,0 -3.07,2.264 -2.093,5.178 0.901,2.688 0.92,5.354 0.895,6.272 H 47.63 v 1.643 h -0.762 v 2.677 c -7.154,0.646 -13.675,3.48 -18.887,7.833 l -1.89,-1.89 -0.539,0.54 -1.161,-1.161 -0.815,0.815 c -0.667,-0.632 -2.538,-2.531 -3.802,-5.07 -1.371,-2.75 -3.73,-3.594 -5.142,-2.181 -1.412,1.412 -0.568,3.771 2.182,5.142 2.538,1.264 4.437,3.134 5.069,3.802 l -0.815,0.815 1.16,1.161 -0.538,0.539 1.892,1.892 c -4.348,5.216 -7.173,11.74 -7.813,18.896 h -2.676 v 0.762 h -1.641 v 1.154 C 10.535,48.845 7.868,48.825 5.179,47.925 2.265,46.948 0,48.02 0,50.017 c 0,1.998 2.265,3.07 5.179,2.094 2.689,-0.9 5.356,-0.921 6.273,-0.896 v 1.154 h 1.641 v 0.761 h 2.678 c 0.647,7.155 3.48,13.676 7.833,18.889 l -1.889,1.891 0.537,0.537 -1.161,1.162 0.815,0.815 c -0.631,0.667 -2.528,2.539 -5.069,3.803 -2.75,1.37 -3.592,3.73 -2.181,5.141 1.411,1.413 3.771,0.569 5.142,-2.182 1.264,-2.538 3.135,-4.438 3.802,-5.068 l 0.815,0.815 1.161,-1.16 0.539,0.538 1.892,-1.892 c 5.216,4.348 11.74,7.174 18.896,7.813 v 2.675 h 0.761 v 1.643 h 1.154 c 0.026,0.918 0.006,3.583 -0.897,6.272 -0.974,2.914 0.099,5.179 2.095,5.179 1.997,0 3.069,-2.265 2.094,-5.179 -0.901,-2.689 -0.922,-5.354 -0.896,-6.272 h 1.152 v -1.643 h 0.762 V 84.23 c 7.154,-0.646 13.675,-3.479 18.889,-7.833 l 1.89,1.89 0.538,-0.539 1.161,1.161 0.815,-0.815 c 0.668,0.631 2.539,2.529 3.803,5.068 1.37,2.751 3.73,3.594 5.143,2.183 1.411,-1.413 0.567,-3.772 -2.183,-5.144 -2.539,-1.263 -4.437,-3.134 -5.069,-3.801 l 0.815,-0.816 -1.159,-1.16 0.537,-0.54 -1.89,-1.891 c 4.347,-5.217 7.173,-11.74 7.812,-18.896 h 2.675 v -0.762 h 1.643 V 51.18 c 0.918,-0.024 3.585,-0.006 6.272,0.896 2.913,0.975 5.179,-0.098 5.179,-2.094 0.001,-1.996 -2.265,-3.07 -5.178,-2.092 z m -75.614,2.959 c -0.466,0 -0.846,-0.377 -0.846,-0.846 0,-0.469 0.38,-0.848 0.846,-0.848 0.468,0 0.848,0.379 0.848,0.848 0,0.469 -0.38,0.846 -0.848,0.846 z m 51.968,-23.22 c 0.33,-0.33 0.867,-0.33 1.197,0 0.331,0.332 0.331,0.868 0,1.199 -0.33,0.33 -0.867,0.33 -1.197,0 -0.332,-0.331 -0.33,-0.868 0,-1.199 z m -2.506,6.514 0.459,0.459 1.41,-1.408 c 3.224,3.933 5.335,8.791 5.868,14.133 h -1.992 v 0.649 H 72.29 v 0.985 c -0.722,0.021 -2.802,0.002 -4.902,-0.765 -1.778,-0.649 -3.233,-0.229 -3.793,0.793 v -1.013 h -2.136 c -0.302,-1.721 -0.978,-3.308 -1.944,-4.679 l 1.505,-1.504 -0.718,-0.716 c 1.118,0.326 2.445,-0.406 3.243,-2.121 0.952,-2.05 2.418,-3.528 2.928,-4.007 l 0.694,0.696 z M 59.683,50 c 0,0.467 -0.378,0.847 -0.847,0.847 -0.468,0 -0.848,-0.38 -0.848,-0.847 0,-0.469 0.38,-0.847 0.848,-0.847 0.469,0 0.847,0.378 0.847,0.847 z M 51.769,32.613 c -0.768,-2.101 -0.785,-4.18 -0.765,-4.903 h 0.984 v -2.123 h 0.649 v -1.995 c 5.344,0.525 10.204,2.63 14.142,5.849 l -1.407,1.407 0.46,0.459 -1.502,1.502 0.696,0.694 c -0.479,0.511 -1.957,1.975 -4.007,2.927 -1.715,0.798 -2.446,2.125 -2.121,3.243 l -0.716,-0.716 -1.508,1.508 C 55.299,39.5 53.708,38.833 51.987,38.536 v -2.129 h -1.013 c 1.022,-0.562 1.444,-2.018 0.795,-3.794 z m -8.615,23.034 c 0.331,-0.329 0.866,-0.329 1.198,0 0.331,0.331 0.331,0.869 0,1.199 -0.332,0.331 -0.867,0.33 -1.198,0 -0.332,-0.329 -0.332,-0.867 0,-1.199 z m 0,-12.495 c 0.331,-0.33 0.866,-0.33 1.198,10e-4 0.331,0.33 0.331,0.866 0,1.198 -0.331,0.331 -0.867,0.331 -1.198,0 -0.332,-0.331 -0.332,-0.867 0,-1.199 z M 43.769,50 c 0,-3.441 2.79,-6.232 6.231,-6.232 3.441,0 6.232,2.791 6.232,6.232 0,3.441 -2.791,6.23 -6.232,6.23 -3.441,0 -6.231,-2.789 -6.231,-6.23 z m 11.88,5.648 c 0.332,-0.33 0.867,-0.33 1.198,0 0.33,0.33 0.33,0.868 0,1.198 -0.331,0.33 -0.867,0.331 -1.198,0 -0.331,-0.329 -0.331,-0.867 0,-1.198 z m 1.199,-11.296 c -0.331,0.331 -0.867,0.33 -1.198,0 -0.331,-0.332 -0.331,-0.868 0,-1.199 0.332,-0.33 0.867,-0.33 1.198,0 0.33,0.331 0.33,0.867 0,1.199 z M 50,18.363 c 0.467,0 0.847,0.378 0.847,0.847 0,0.467 -0.38,0.847 -0.847,0.847 -0.467,0 -0.847,-0.38 -0.847,-0.847 0,-0.469 0.38,-0.847 0.847,-0.847 z m 0,21.954 c 0.467,0 0.847,0.38 0.847,0.847 0,0.468 -0.38,0.848 -0.847,0.848 -0.467,0 -0.847,-0.38 -0.847,-0.848 0,-0.467 0.38,-0.847 0.847,-0.847 z M 47.327,23.593 v 1.993 h 0.649 v 2.123 h 0.985 c 0.021,0.723 0.002,2.803 -0.765,4.903 -0.649,1.776 -0.227,3.232 0.793,3.793 h -1.013 v 2.135 c -1.719,0.302 -3.308,0.977 -4.678,1.946 l -1.505,-1.505 -0.716,0.716 c 0.326,-1.118 -0.406,-2.445 -2.121,-3.243 -2.05,-0.952 -3.528,-2.417 -4.006,-2.927 l 0.695,-0.696 -1.502,-1.5 0.46,-0.46 -1.409,-1.411 c 3.932,-3.223 8.792,-5.334 14.133,-5.867 z M 42.012,50 c 0,0.467 -0.38,0.847 -0.848,0.847 -0.467,0 -0.847,-0.38 -0.847,-0.847 0,-0.469 0.38,-0.847 0.847,-0.847 0.468,0 0.848,0.378 0.848,0.847 z M 27.628,27.629 c 0.33,-0.33 0.867,-0.33 1.198,0 0.331,0.332 0.331,0.868 0,1.198 -0.331,0.332 -0.868,0.332 -1.198,0 -0.332,-0.33 -0.332,-0.867 0,-1.198 z m 1.812,5.592 1.407,1.407 0.459,-0.459 1.502,1.5 0.694,-0.695 c 0.511,0.479 1.975,1.958 2.927,4.007 0.798,1.715 2.125,2.446 3.243,2.121 l -0.716,0.716 1.508,1.509 c -0.962,1.374 -1.631,2.964 -1.928,4.685 h -2.13 v 1.012 c -0.56,-1.02 -2.016,-1.441 -3.793,-0.792 -2.1,0.768 -4.181,0.787 -4.903,0.766 v -0.985 h -2.122 v -0.651 h -1.996 c 0.526,-5.343 2.631,-10.204 5.848,-14.141 z m -0.614,39.153 c -0.332,0.332 -0.868,0.332 -1.198,0 -0.332,-0.331 -0.332,-0.866 0,-1.197 0.33,-0.331 0.866,-0.331 1.196,0 0.332,0.331 0.332,0.866 0.002,1.197 z m 2.505,-6.518 -0.459,-0.46 -1.411,1.41 C 26.238,62.871 24.127,58.014 23.595,52.673 h 1.993 v -0.65 h 2.122 v -0.984 c 0.722,-0.021 2.804,-0.004 4.903,0.765 1.777,0.648 3.233,0.228 3.793,-0.794 v 1.014 h 2.136 c 0.302,1.719 0.977,3.307 1.943,4.679 l -1.504,1.504 0.717,0.716 c -1.118,-0.325 -2.445,0.406 -3.244,2.122 -0.952,2.048 -2.416,3.526 -2.927,4.006 l -0.695,-0.694 z m 16.9,1.532 c 0.768,2.1 0.786,4.18 0.764,4.901 h -0.983 v 2.123 h -0.651 v 1.996 c -5.342,-0.526 -10.203,-2.63 -14.14,-5.85 l 1.407,-1.405 -0.46,-0.459 1.502,-1.502 -0.695,-0.695 c 0.479,-0.511 1.958,-1.976 4.006,-2.928 1.716,-0.798 2.446,-2.125 2.121,-3.243 l 0.717,0.717 1.508,-1.508 c 1.374,0.963 2.964,1.632 4.685,1.928 v 2.13 h 1.013 c -1.022,0.561 -1.443,2.016 -0.794,3.795 z M 50,81.643 c -0.467,0 -0.847,-0.38 -0.847,-0.849 0,-0.467 0.38,-0.846 0.847,-0.846 0.467,0 0.847,0.379 0.847,0.846 0,0.469 -0.38,0.849 -0.847,0.849 z m 0,-21.96 c -0.467,0 -0.847,-0.381 -0.847,-0.847 0,-0.469 0.38,-0.848 0.847,-0.848 0.467,0 0.847,0.379 0.847,0.848 0,0.466 -0.38,0.847 -0.847,0.847 z m 2.674,16.722 v -1.993 h -0.65 V 72.289 H 51.04 c -0.021,-0.722 -0.004,-2.802 0.764,-4.901 0.65,-1.778 0.229,-3.233 -0.792,-3.795 h 1.013 v -2.135 c 1.72,-0.302 3.308,-0.977 4.68,-1.943 l 1.503,1.503 0.717,-0.716 c -0.325,1.118 0.406,2.445 2.121,3.243 2.05,0.951 3.526,2.415 4.006,2.927 l -0.694,0.695 1.502,1.501 -0.461,0.46 1.411,1.41 c -3.936,3.224 -8.794,5.335 -14.136,5.867 z m 19.698,-4.031 c -0.33,0.332 -0.866,0.332 -1.197,0 -0.33,-0.331 -0.33,-0.866 0,-1.197 0.331,-0.331 0.867,-0.331 1.197,0 0.333,0.331 0.331,0.866 0,1.197 z m -1.811,-5.596 -1.407,-1.406 -0.459,0.459 -1.502,-1.502 -0.695,0.696 c -0.511,-0.48 -1.975,-1.958 -2.928,-4.006 -0.798,-1.717 -2.124,-2.446 -3.242,-2.121 l 0.716,-0.717 -1.507,-1.507 c 0.964,-1.375 1.632,-2.966 1.93,-4.687 h 2.129 v -1.014 c 0.56,1.021 2.015,1.443 3.793,0.794 2.101,-0.769 4.181,-0.786 4.902,-0.765 v 0.984 h 2.124 v 0.65 h 1.995 c -0.526,5.345 -2.632,10.205 -5.849,14.142 z M 80.792,50.849 c -0.467,0 -0.847,-0.377 -0.847,-0.846 0,-0.469 0.38,-0.848 0.847,-0.848 0.468,0 0.848,0.379 0.848,0.848 0,0.469 -0.38,0.846 -0.848,0.846 z"
         inkscape:connector-curvature="0"
         style="fill:#d45500" />
    </g>
  </g>
</svg>
